<svg xmlns="http://www.w3.org/2000/svg" xmlns:xlink="http://www.w3.org/1999/xlink" width="1680" height="868.4"><rect width="1680" height="868.4" rx="0" ry="0" class="a"/><svg height="868.4" viewBox="0 0 168 86.84" width="1680" xmlns="http://www.w3.org/2000/svg" xmlns:xlink="http://www.w3.org/1999/xlink"><style>.a{fill:#282d35}.c{fill:#b9c0cb}.f{fill:#dbab79}</style><g font-size="1.67" font-family="Monaco,Consolas,Menlo,'Bitstream Vera Sans Mono','Powerline Symbols',monospace"><defs><symbol id="1"><text y="1.67" class="c">Author</text><text x="8.016" y="1.67" class="c">:</text><text x="10.02" y="1.67" class="c">Felix</text><text x="16.032" y="1.67" class="c">Becker</text><text x="23.046" y="1.67" class="c">&lt;felix.b@outlook.com&gt;</text></symbol><symbol id="a"><path fill="transparent" d="M0 0h168v40H0z"/></symbol><symbol id="b"><path fill="#6f7683" d="M0 0h1.102v2.171H0z"/></symbol></defs><path class="a" d="M0 0h168v86.84H0z"/><svg width="168"><svg><use xlink:href="#a"/><use xlink:href="#b" x="40.996" y="84.644"/><text y="6.012" class="f">Sha</text><text x="8.016" y="6.012" class="f">:</text><text x="10.02" y="6.012" class="f">be1db1135ac5156cd7baf887a9e94d3db6792c21</text><use xlink:href="#1" y="6.513"/><text y="10.354" class="c">Date</text><text x="8.016" y="10.354" class="c">:</text><text x="10.02" y="10.354" class="c">08/14/2018</text><text x="21.042" y="10.354" class="c">12:17:21</text><text x="30.06" y="10.354" class="c">+02:00</text><text y="12.525" class="c">Message</text><text x="8.016" y="12.525" class="c">:</text><text x="10.02" y="12.525" class="c">Fix</text><text x="14.028" y="12.525" class="c">README</text><text y="16.867" class="f">Sha</text><text x="8.016" y="16.867" class="f">:</text><text x="10.02" y="16.867" class="f">c9a29a9fe19f606018d4d482be7cca91780fa7bb</text><use xlink:href="#1" y="17.368"/><text y="21.209" class="c">Date</text><text x="8.016" y="21.209" class="c">:</text><text x="10.02" y="21.209" class="c">08/14/2018</text><text x="21.042" y="21.209" class="c">12:11:13</text><text x="30.06" y="21.209" class="c">+02:00</text><text y="23.38" class="c">Message</text><text x="8.016" y="23.38" class="c">:</text><text x="10.02" y="23.38" class="c">Extend</text><text x="17.034" y="23.38" class="c">README</text><text y="29.893" class="f">Sha</text><text x="8.016" y="29.893" class="f">:</text><text x="10.02" y="29.893" class="f">037a9d68f52e7f15281730a978ba0e7e90337911</text><use xlink:href="#1" y="30.394"/><text y="34.235" class="c">Date</text><text x="8.016" y="34.235" class="c">:</text><text x="10.02" y="34.235" class="c">08/14/2018</text><text x="21.042" y="34.235" class="c">12:11:08</text><text x="30.06" y="34.235" class="c">+02:00</text><text y="36.406" class="c">Message</text><text x="8.016" y="36.406" class="c">:</text><text x="10.02" y="36.406" class="c">Support</text><text x="18.036" y="36.406" class="c">pretty</text><text x="25.05" y="36.406" class="c">outputs</text><text x="33.066" y="36.406" class="c">for</text><text x="37.074" y="36.406" class="c">Get-GitCommit</text><text x="51.102" y="36.406" class="c">(git</text><text x="56.112" y="36.406" class="c">log)</text><text y="42.919" class="f">Sha</text><text x="8.016" y="42.919" class="f">:</text><text x="10.02" y="42.919" class="f">aa0ae31f398058be34f93129d9c352df37aeb162</text><use xlink:href="#1" y="43.42"/><text y="47.261" class="c">Date</text><text x="8.016" y="47.261" class="c">:</text><text x="10.02" y="47.261" class="c">08/13/2018</text><text x="21.042" y="47.261" class="c">17:54:24</text><text x="30.06" y="47.261" class="c">+02:00</text><text y="49.432" class="c">Message</text><text x="8.016" y="49.432" class="c">:</text><text x="10.02" y="49.432" class="c">Make</text><text x="15.03" y="49.432" class="c">Add-GitItem</text><text x="27.054" y="49.432" class="c">Path</text><text x="32.064" y="49.432" class="c">parameter</text><text x="42.084" y="49.432" class="c">positional</text><text y="55.945" class="f">Sha</text><text x="8.016" y="55.945" class="f">:</text><text x="10.02" y="55.945" class="f">fef8934012c8dfa760c63b08ddca073bab3c7e1a</text><use xlink:href="#1" y="56.446"/><text y="60.287" class="c">Date</text><text x="8.016" y="60.287" class="c">:</text><text x="10.02" y="60.287" class="c">08/13/2018</text><text x="21.042" y="60.287" class="c">17:42:19</text><text x="30.06" y="60.287" class="c">+02:00</text><text y="62.458" class="c">Message</text><text x="8.016" y="62.458" class="c">:</text><text x="10.02" y="62.458" class="c">Add</text><text x="14.028" y="62.458" class="c">Configuration</text><text x="28.056" y="62.458" class="c">parameter</text><text x="38.076" y="62.458" class="c">to</text><text x="41.082" y="62.458" class="c">build</text><text x="47.094" y="62.458" class="c">script</text><text y="68.971" class="f">Sha</text><text x="8.016" y="68.971" class="f">:</text><text x="10.02" y="68.971" class="f">fbd88bb80db07bde511c5ae5b5518ea01c2fc0d6</text><use xlink:href="#1" y="69.472"/><text y="73.313" class="c">Date</text><text x="8.016" y="73.313" class="c">:</text><text x="10.02" y="73.313" class="c">08/13/2018</text><text x="21.042" y="73.313" class="c">17:41:46</text><text x="30.06" y="73.313" class="c">+02:00</text><text y="75.484" class="c">Message</text><text x="8.016" y="75.484" class="c">:</text><text x="10.02" y="75.484" class="c">Make</text><text x="15.03" y="75.484" class="c">Copy-GitRepository&apos;s</text><text x="36.072" y="75.484" class="c">parameters</text><text x="47.094" y="75.484" class="c">like</text><text x="52.104" y="75.484" class="c">native</text><text x="59.118" y="75.484" class="c">git</text><text y="81.997" class="f">Sha</text><text x="8.016" y="81.997" class="f">:</text><text x="10.02" y="81.997" class="f">1967da731dbe404b472efc57a04b39acd5b94e96</text><use xlink:href="#1" y="82.498"/><text y="86.339" class="c">&lt;SPACE&gt;</text><text x="8.016" y="86.339" class="c">next</text><text x="13.026" y="86.339" class="c">page;</text><text x="19.038" y="86.339" class="c">&lt;CR&gt;</text><text x="24.048" y="86.339" class="c">next</text><text x="29.058" y="86.339" class="c">line;</text><text x="35.07" y="86.339" class="c">Q</text><text x="37.074" y="86.339" class="c">quit</text></svg></svg></g></svg></svg>