<svg xmlns="http://www.w3.org/2000/svg" xmlns:xlink="http://www.w3.org/1999/xlink" width="1680" height="868.4"><rect width="1680" height="868.4" rx="0" ry="0" class="a"/><svg height="868.4" viewBox="0 0 168 86.84" width="1680" xmlns="http://www.w3.org/2000/svg" xmlns:xlink="http://www.w3.org/1999/xlink"><style>.a{fill:#282d35}.c{fill:#b9c0cb}.f{fill:#dbab79}.g{fill:#b9c0cb;font-weight:700}.h{fill:#e88388}.i{fill:#a8cc8c}.j{fill:#66c2cd}</style><g font-size="1.67" font-family="Monaco,Consolas,Menlo,'Bitstream Vera Sans Mono','Powerline Symbols',monospace"><defs><symbol id="1"><text y="1.67" class="c">Author</text><text x="8.016" y="1.67" class="c">:</text><text x="10.02" y="1.67" class="c">Felix</text><text x="16.032" y="1.67" class="c">Becker</text><text x="23.046" y="1.67" class="c">&lt;felix.b@outlook.com&gt;</text></symbol><symbol id="a"><path fill="transparent" d="M0 0h168v40H0z"/></symbol><symbol id="b"><path fill="#6f7683" d="M0 0h1.102v2.171H0z"/></symbol></defs><path class="a" d="M0 0h168v86.84H0z"/><svg width="168"><svg><use xlink:href="#a"/><use xlink:href="#b" x="40.996" y="84.644"/><text y="6.012" class="f">Sha</text><text x="8.016" y="6.012" class="f">:</text><text x="10.02" y="6.012" class="f">be1db1135ac5156cd7baf887a9e94d3db6792c21</text><use xlink:href="#1" y="6.513"/><text y="10.354" class="c">Date</text><text x="8.016" y="10.354" class="c">:</text><text x="10.02" y="10.354" class="c">08/14/2018</text><text x="21.042" y="10.354" class="c">12:17:21</text><text x="30.06" y="10.354" class="c">+02:00</text><text y="12.525" class="c">Message</text><text x="8.016" y="12.525" class="c">:</text><text x="10.02" y="12.525" class="c">Fix</text><text x="14.028" y="12.525" class="c">README</text><text y="14.696" class="c">Patch</text><text x="8.016" y="14.696" class="c">:</text><text x="10.02" y="14.696" class="g">diff</text><text x="15.03" y="14.696" class="g">--git</text><text x="21.042" y="14.696" class="g">a/README.md</text><text x="33.066" y="14.696" class="g">b/README.md</text><text x="10.02" y="16.867" class="g">index</text><text x="16.032" y="16.867" class="g">debcf73..384aaf2</text><text x="33.066" y="16.867" class="g">100644</text><text x="10.02" y="19.038" class="h">---</text><text x="14.028" y="19.038" class="h">a/README.md</text><text x="10.02" y="21.209" class="i">+++</text><text x="14.028" y="21.209" class="i">b/README.md</text><text x="10.02" y="23.38" class="j">@@</text><text x="13.026" y="23.38" class="j">-29,7</text><text x="19.038" y="23.38" class="j">+29,7</text><text x="25.05" y="23.38" class="j">@@</text><text x="28.056" y="23.38" class="c">Forked</text><text x="35.07" y="23.38" class="c">from</text><text x="40.08" y="23.38" class="c">`GitAutomation`</text><text x="56.112" y="23.38" class="c">but</text><text x="60.12" y="23.38" class="c">made</text><text x="65.13" y="23.38" class="c">to</text><text x="68.136" y="23.38" class="c">work</text><text x="73.146" y="23.38" class="c">PSCore</text><text x="80.16" y="23.38" class="c">(Linux,</text><text x="88.176" y="23.38" class="c">macOS,</text><text x="95.19" y="23.38" class="c">Windows).</text><text x="11.022" y="25.551" class="c">|</text><text x="13.026" y="25.551" class="c">`git</text><text x="18.036" y="25.551" class="c">add</text><text x="22.044" y="25.551" class="c">README.md`</text><text x="70.14" y="25.551" class="c">|</text><text x="72.144" y="25.551" class="c">`Add-GitItem</text><text x="85.17" y="25.551" class="c">README.md`</text><text x="138.276" y="25.551" class="c">|</text><text x="11.022" y="27.722" class="c">|</text><text x="13.026" y="27.722" class="c">`git</text><text x="18.036" y="27.722" class="c">commit</text><text x="25.05" y="27.722" class="c">-m</text><text x="28.056" y="27.722" class="c">&quot;message&quot;`</text><text x="70.14" y="27.722" class="c">|</text><text x="72.144" y="27.722" class="c">`Save-GitCommit</text><text x="88.176" y="27.722" class="c">-m</text><text x="91.182" y="27.722" class="c">&quot;message&quot;`</text><text x="138.276" y="27.722" class="c">|</text><text x="11.022" y="29.893" class="c">|</text><text x="13.026" y="29.893" class="c">`git</text><text x="18.036" y="29.893" class="c">log`</text><text x="70.14" y="29.893" class="c">|</text><text x="72.144" y="29.893" class="c">`Get-GitCommit`</text><text x="138.276" y="29.893" class="c">|</text><text x="10.02" y="32.064" class="h">-|</text><text x="13.026" y="32.064" class="h">`git</text><text x="18.036" y="32.064" class="h">log</text><text x="22.044" y="32.064" class="h">--oneline`</text><text x="70.14" y="32.064" class="h">|</text><text x="72.144" y="32.064" class="h">`Get-GitCommit</text><text x="87.174" y="32.064" class="h">\|</text><text x="90.18" y="32.064" class="h">Format-Table`</text><text x="139.278" y="32.064" class="h">|</text><text x="10.02" y="34.235" class="i">+|</text><text x="13.026" y="34.235" class="i">`git</text><text x="18.036" y="34.235" class="i">log</text><text x="22.044" y="34.235" class="i">--oneline`</text><text x="70.14" y="34.235" class="i">|</text><text x="72.144" y="34.235" class="i">`Get-GitCommit</text><text x="87.174" y="34.235" class="i">|</text><text x="89.178" y="34.235" class="i">Format-Table`</text><text x="138.276" y="34.235" class="i">|</text><text x="11.022" y="36.406" class="c">|</text><text x="13.026" y="36.406" class="c">`git</text><text x="18.036" y="36.406" class="c">log</text><text x="22.044" y="36.406" class="c">-p`</text><text x="70.14" y="36.406" class="c">|</text><text x="72.144" y="36.406" class="c">`Get-GitCommit</text><text x="87.174" y="36.406" class="c">-p`</text><text x="138.276" y="36.406" class="c">|</text><text x="11.022" y="40.748" class="c">##</text><text x="14.028" y="40.748" class="c">Tips</text><text y="47.261" class="f">Sha</text><text x="8.016" y="47.261" class="f">:</text><text x="10.02" y="47.261" class="f">c9a29a9fe19f606018d4d482be7cca91780fa7bb</text><use xlink:href="#1" y="47.762"/><text y="51.603" class="c">Date</text><text x="8.016" y="51.603" class="c">:</text><text x="10.02" y="51.603" class="c">08/14/2018</text><text x="21.042" y="51.603" class="c">12:11:13</text><text x="30.06" y="51.603" class="c">+02:00</text><text y="53.774" class="c">Message</text><text x="8.016" y="53.774" class="c">:</text><text x="10.02" y="53.774" class="c">Extend</text><text x="17.034" y="53.774" class="c">README</text><text y="58.116" class="c">Patch</text><text x="8.016" y="58.116" class="c">:</text><text x="10.02" y="58.116" class="g">diff</text><text x="15.03" y="58.116" class="g">--git</text><text x="21.042" y="58.116" class="g">a/.editorconfig</text><text x="37.074" y="58.116" class="g">b/.editorconfig</text><text x="10.02" y="60.287" class="g">index</text><text x="16.032" y="60.287" class="g">0edf591..86c4c8c</text><text x="33.066" y="60.287" class="g">100644</text><text x="10.02" y="62.458" class="h">---</text><text x="14.028" y="62.458" class="h">a/.editorconfig</text><text x="10.02" y="64.629" class="i">+++</text><text x="14.028" y="64.629" class="i">b/.editorconfig</text><text x="10.02" y="66.8" class="j">@@</text><text x="13.026" y="66.8" class="j">-7,8</text><text x="18.036" y="66.8" class="j">+7,5</text><text x="23.046" y="66.8" class="j">@@</text><text x="26.052" y="66.8" class="c">indent_style</text><text x="39.078" y="66.8" class="c">=</text><text x="41.082" y="66.8" class="c">space</text><text x="11.022" y="68.971" class="c">insert_final_newline</text><text x="32.064" y="68.971" class="c">=</text><text x="34.068" y="68.971" class="c">true</text><text x="11.022" y="71.142" class="c">trim_trailing_whitespace</text><text x="36.072" y="71.142" class="c">=</text><text x="38.076" y="71.142" class="c">true</text><text x="10.02" y="75.484" class="h">-[{*.yml,*.md,*.json,.prettierrc}]</text><text x="10.02" y="77.655" class="i">+[{*.yml,*.md,*.json}]</text><text x="11.022" y="79.826" class="c">indent_size</text><text x="23.046" y="79.826" class="c">=</text><text x="25.05" y="79.826" class="c">2</text><text x="10.02" y="81.997" class="h">-</text><text x="10.02" y="84.168" class="h">-[*.md]</text><text y="86.339" class="c">&lt;SPACE&gt;</text><text x="8.016" y="86.339" class="c">next</text><text x="13.026" y="86.339" class="c">page;</text><text x="19.038" y="86.339" class="c">&lt;CR&gt;</text><text x="24.048" y="86.339" class="c">next</text><text x="29.058" y="86.339" class="c">line;</text><text x="35.07" y="86.339" class="c">Q</text><text x="37.074" y="86.339" class="c">quit</text></svg></svg></g></svg></svg>